<svg width="20" height="19" viewBox="0 0 20 19" fill="none" xmlns="http://www.w3.org/2000/svg">
<path fill-rule="evenodd" clip-rule="evenodd" d="M13.6288 1.30082H16.5186C17.7142 1.30082 18.6841 2.22725 18.6841 3.37013V6.1295C18.6841 7.27151 17.7142 8.1988 16.5186 8.1988H13.6288C12.4323 8.1988 11.4624 7.27151 11.4624 6.1295V3.37013C11.4624 2.22725 12.4323 1.30082 13.6288 1.30082Z" stroke="#808191" stroke-width="1.5" stroke-linecap="round" stroke-linejoin="round"/>
<path fill-rule="evenodd" clip-rule="evenodd" d="M3.15811 1.30082H6.04695C7.24346 1.30082 8.21336 2.22725 8.21336 3.37013V6.1295C8.21336 7.27151 7.24346 8.1988 6.04695 8.1988H3.15811C1.9616 8.1988 0.991699 7.27151 0.991699 6.1295V3.37013C0.991699 2.22725 1.9616 1.30082 3.15811 1.30082Z" stroke="#808191" stroke-width="1.5" stroke-linecap="round" stroke-linejoin="round"/>
<path fill-rule="evenodd" clip-rule="evenodd" d="M3.15817 11.1573H6.04701C7.24352 11.1573 8.21342 12.0838 8.21342 13.2275V15.986C8.21342 17.1289 7.24352 18.0553 6.04701 18.0553H3.15817C1.96166 18.0553 0.99176 17.1289 0.99176 15.986V13.2275C0.99176 12.0838 1.96166 11.1573 3.15817 11.1573Z" stroke="#808191" stroke-width="1.5" stroke-linecap="round" stroke-linejoin="round"/>
<path fill-rule="evenodd" clip-rule="evenodd" d="M13.6291 11.1573H16.5188C17.7144 11.1573 18.6843 12.0838 18.6843 13.2275V15.986C18.6843 17.1289 17.7144 18.0553 16.5188 18.0553H13.6291C12.4326 18.0553 11.4627 17.1289 11.4627 15.986V13.2275C11.4627 12.0838 12.4326 11.1573 13.6291 11.1573Z" stroke="#808191" stroke-width="1.5" stroke-linecap="round" stroke-linejoin="round"/>
</svg>
