<svg width="21" height="19" viewBox="0 0 21 19" fill="none" xmlns="http://www.w3.org/2000/svg">
<path d="M4.86758 9.87632H3.56757V7.42165C3.56757 7.03898 3.22757 6.72165 2.81757 6.72165C2.40757 6.72165 2.06757 7.03898 2.06757 7.42165V9.87632H0.767578C0.357578 9.87632 0.0175781 10.1936 0.0175781 10.5763V16.1016C0.0175781 16.4843 0.357578 16.8016 0.767578 16.8016H2.06757V18.0803C2.06757 18.463 2.40757 18.7803 2.81757 18.7803C3.22757 18.7803 3.56757 18.463 3.56757 18.0803V16.8016H4.86758C5.27758 16.8016 5.61758 16.4843 5.61758 16.1016V10.5763C5.61758 10.1936 5.27758 9.87632 4.86758 9.87632Z" fill="white"/>
<path d="M12.0378 4.50855H10.7878V1.63388C10.7878 1.25122 10.4478 0.933884 10.0378 0.933884C9.62784 0.933884 9.28784 1.25122 9.28784 1.63388V4.50855H8.04785C7.63785 4.50855 7.29785 4.82588 7.29785 5.20855V14.1872C7.29785 14.5699 7.63785 14.8872 8.04785 14.8872H9.29785V16.1659C9.29785 16.5485 9.63785 16.8659 10.0479 16.8659C10.4579 16.8659 10.7979 16.5485 10.7979 16.1659V14.8872H12.0378C12.4478 14.8872 12.7878 14.5699 12.7878 14.1872V5.20855C12.7878 4.82588 12.4478 4.50855 12.0378 4.50855Z" fill="white"/>
<path d="M19.268 1.98957H17.968V0.813571C17.968 0.430905 17.628 0.113571 17.218 0.113571C16.808 0.113571 16.468 0.430905 16.468 0.813571V1.98957H15.168C14.758 1.98957 14.418 2.3069 14.418 2.68957V11.5002C14.418 11.8829 14.758 12.2002 15.168 12.2002H16.468V14.1882C16.468 14.5709 16.808 14.8882 17.218 14.8882C17.628 14.8882 17.968 14.5709 17.968 14.1882V12.2002H19.268C19.678 12.2002 20.018 11.8829 20.018 11.5002V2.68957C20.018 2.3069 19.678 1.98957 19.268 1.98957Z" fill="white"/>
</svg>
