<svg width="21" height="19" viewBox="0 0 21 19" fill="none" xmlns="http://www.w3.org/2000/svg">
<path d="M13.3946 7.73944C13.3946 8.606 12.3324 9.37971 10.7147 9.85942C9.74566 10.1181 8.74689 10.2636 7.74059 10.2927C7.55575 10.3081 7.36983 10.3081 7.18499 10.2927C3.76969 10.2927 0.991699 9.13212 0.991699 7.70849C0.991699 6.28485 3.76969 5.12428 7.18499 5.12428H7.74059C8.01839 5.12428 8.27985 5.12428 8.5413 5.12428C10.0011 5.24114 11.4008 5.72751 12.5939 6.53244C12.8123 6.66608 12.9972 6.84339 13.1355 7.05191C13.2739 7.26043 13.3623 7.4951 13.3946 7.73944V7.73944Z" stroke="#808191" stroke-width="1.5" stroke-linecap="round" stroke-linejoin="round"/>
<path d="M13.3948 7.73766V11.436C13.3948 12.38 12.2019 13.1846 10.4044 13.6334C9.33706 13.8948 8.2386 14.0248 7.13616 14.0203C4.30914 14.0203 1.92334 13.2311 1.18799 12.1633" stroke="#808191" stroke-width="1.5" stroke-linecap="round" stroke-linejoin="round"/>
<path d="M13.3946 11.4367V15.2898C13.3946 16.7289 10.6166 17.874 7.18499 17.874C3.75335 17.874 0.991699 16.7289 0.991699 15.2898" stroke="#808191" stroke-width="1.5" stroke-linecap="round" stroke-linejoin="round"/>
<path d="M8.10023 4.82976C7.88122 4.58723 7.75461 4.28205 7.74072 3.9632C7.74072 2.53956 10.5187 1.37898 13.9504 1.37898C17.382 1.37898 20.1436 2.53956 20.1436 3.9632C20.1436 5.38684 17.3656 6.53194 13.9504 6.53194C13.4986 6.55549 13.0458 6.55549 12.594 6.53194" stroke="#808191" stroke-width="1.5" stroke-linecap="round" stroke-linejoin="round"/>
<path d="M13.395 14.0831H13.9506C17.3659 14.0831 20.1439 12.938 20.1439 11.5144" stroke="#808191" stroke-width="1.5" stroke-linecap="round" stroke-linejoin="round"/>
<path d="M13.395 10.2305H13.9506C17.3659 10.2305 20.1439 9.06998 20.1439 7.66182" stroke="#808191" stroke-width="1.5" stroke-linecap="round" stroke-linejoin="round"/>
<path d="M20.1431 11.5142V7.66112V3.96275" stroke="#808191" stroke-width="1.5" stroke-linecap="round" stroke-linejoin="round"/>
<path d="M0.991699 15.2891V7.73766" stroke="#808191" stroke-width="1.5" stroke-linecap="round" stroke-linejoin="round"/>
</svg>
