<svg width="31" height="29" viewBox="0 0 31 29" fill="none" xmlns="http://www.w3.org/2000/svg">
<path d="M15.9015 28.394C24.1359 28.394 30.8113 22.0728 30.8113 14.2751C30.8113 6.47744 24.1359 0.156189 15.9015 0.156189C7.66704 0.156189 0.991699 6.47744 0.991699 14.2751C0.991699 22.0728 7.66704 28.394 15.9015 28.394Z" fill="#3772FF"/>
<path d="M8.95503 11.8364C10.3624 11.8364 11.6475 11.8364 13.0181 11.8364C12.5788 11.225 12.1919 10.6664 11.7763 10.1277C11.7144 10.0468 11.5184 10.0336 11.3842 10.0328C10.2515 10.0253 9.11904 10.0402 7.98699 10.0171C7.81098 10.0138 7.58733 9.89166 7.47496 9.75802C7.16222 9.38345 6.8953 8.97256 6.57056 8.52041C6.74984 8.50722 6.87093 8.4899 6.99203 8.4899C8.73466 8.48824 10.4773 8.49482 12.2192 8.48328C12.4996 8.48163 12.6625 8.56745 12.8192 8.78856C13.8214 10.2027 14.8389 11.6078 15.8844 13.0608C15.9837 12.9445 16.0685 12.8603 16.1365 12.7654C17.094 11.437 18.0435 10.1045 19.0115 8.7836C19.1108 8.6483 19.3155 8.50143 19.4733 8.49978C21.3029 8.47998 23.1321 8.48742 24.9616 8.48907C25.0289 8.48907 25.0958 8.50639 25.2318 8.52454C24.8772 9.02039 24.5652 9.47832 24.2227 9.91477C24.1583 9.99728 23.9699 10.0229 23.8394 10.0237C22.7066 10.032 21.5742 10.0361 20.4414 10.0229C20.1799 10.0196 20.0206 10.0922 19.8785 10.3059C19.549 10.8034 19.1875 11.2819 18.7904 11.8364C20.1574 11.8364 21.4487 11.8364 22.8477 11.8364C22.4611 12.3785 22.1429 12.8463 21.7934 13.2926C21.7291 13.3743 21.5382 13.3958 21.4051 13.3966C20.3308 13.4057 19.2555 13.4172 18.182 13.3958C17.8111 13.3883 17.5783 13.4824 17.3682 13.7901C16.8925 14.489 16.8787 14.4717 17.3682 15.1309C17.8442 15.7712 18.3136 16.4164 18.7675 17.0715C19.5806 18.2447 19.5188 19.7736 18.63 20.8552C17.7187 21.965 16.1939 22.4081 14.8077 21.9658C13.4221 21.5236 12.4665 20.2967 12.457 18.9006C12.4516 18.2134 12.6581 17.5756 13.0807 17.003C13.6298 16.2596 14.156 15.5014 14.7084 14.7604C14.8659 14.5492 14.8408 14.4081 14.7197 14.1779C14.3876 13.5467 13.9153 13.3223 13.1625 13.3834C12.2548 13.4568 11.3348 13.4147 10.4198 13.39C10.2413 13.385 10.0129 13.2712 9.90126 13.1367C9.58342 12.7538 9.31141 12.3339 8.95503 11.8364ZM15.9655 15.8702C15.887 15.9263 15.8444 15.9436 15.8226 15.9741C15.3302 16.6531 14.8233 17.3231 14.3546 18.017C13.8989 18.6903 14.048 19.5731 14.668 20.1242C15.2851 20.6721 16.2016 20.7397 16.9136 20.2884C17.5958 19.8561 17.9573 18.9831 17.5809 18.3C17.1172 17.4576 16.5143 16.6837 15.9655 15.8702Z" fill="white"/>
</svg>
