<svg width="17" height="18" viewBox="0 0 17 18" fill="none" xmlns="http://www.w3.org/2000/svg">
<path d="M8.71187 17.9606C13.2519 17.9606 16.9323 14.143 16.9323 9.43369C16.9323 4.72442 13.2519 0.906799 8.71187 0.906799C4.17183 0.906799 0.491394 4.72442 0.491394 9.43369C0.491394 14.143 4.17183 17.9606 8.71187 17.9606Z" fill="#3772FF"/>
<path d="M4.88224 7.96086C5.65817 7.96086 6.36674 7.96086 7.12242 7.96086C6.88021 7.59162 6.66688 7.25427 6.43771 6.9289C6.40363 6.88006 6.29556 6.87208 6.22158 6.8716C5.59702 6.86711 4.97266 6.87607 4.34851 6.86212C4.25147 6.86012 4.12816 6.78637 4.06621 6.70566C3.89378 6.47945 3.74661 6.23129 3.56757 5.95822C3.66641 5.95026 3.73318 5.9398 3.79994 5.9398C4.76074 5.9388 5.72153 5.94277 6.68192 5.93581C6.83651 5.93481 6.92633 5.98663 7.01275 6.12017C7.56532 6.97423 8.12632 7.82283 8.70275 8.70031C8.75749 8.63005 8.80421 8.57922 8.8417 8.52193C9.36961 7.71967 9.89312 6.91494 10.4268 6.11718C10.4816 6.03547 10.5945 5.94677 10.6815 5.94577C11.6902 5.93381 12.6987 5.9383 13.7074 5.9393C13.7445 5.9393 13.7814 5.94976 13.8564 5.96072C13.6609 6.26018 13.4889 6.53674 13.3 6.80033C13.2645 6.85016 13.1607 6.86561 13.0887 6.86611C12.4641 6.8711 11.8398 6.87358 11.2152 6.86561C11.0711 6.86361 10.9832 6.90748 10.9048 7.03652C10.7232 7.337 10.5239 7.626 10.3049 7.96086C11.0586 7.96086 11.7706 7.96086 12.5419 7.96086C12.3288 8.28823 12.1533 8.57076 11.9607 8.84033C11.9252 8.88967 11.8199 8.90262 11.7465 8.90312C11.1543 8.90859 10.5614 8.91558 9.96951 8.90262C9.765 8.89813 9.63668 8.95493 9.52079 9.14079C9.25854 9.56285 9.25092 9.55239 9.52079 9.95052C9.78325 10.3372 10.0421 10.7269 10.2923 11.1225C10.7406 11.8311 10.7065 12.7544 10.2165 13.4076C9.71407 14.0778 8.87338 14.3454 8.10907 14.0783C7.34517 13.8113 6.81826 13.0703 6.81305 12.2272C6.81004 11.8121 6.92392 11.427 7.1569 11.0811C7.45966 10.6322 7.74978 10.1743 8.05434 9.72678C8.14116 9.59923 8.12732 9.51402 8.06055 9.37499C7.8775 8.9938 7.61705 8.85826 7.20202 8.89514C6.70157 8.9395 6.19431 8.91408 5.68985 8.89913C5.59141 8.89613 5.46549 8.82738 5.40394 8.74616C5.2287 8.51494 5.07873 8.26132 4.88224 7.96086ZM8.74747 10.397C8.70416 10.4309 8.6807 10.4413 8.66867 10.4598C8.39719 10.8699 8.1177 11.2745 7.85925 11.6935C7.60803 12.1001 7.69023 12.6333 8.03208 12.9662C8.37233 13.297 8.87759 13.3379 9.27017 13.0653C9.6463 12.8042 9.8456 12.277 9.63808 11.8644C9.38245 11.3557 9.05002 10.8883 8.74747 10.397Z" fill="white"/>
</svg>
