<svg width="92" height="33" viewBox="0 0 92 33" fill="none" xmlns="http://www.w3.org/2000/svg">
<rect x="33.0392" y="0.779114" width="58.1912" height="25.8627" rx="12.9314" fill="#353945"/>
<g filter="url(#filter0_d_2402_2676)">
<circle cx="76.207" cy="13.7111" r="9.11666" fill="#3772FF"/>
</g>
<path d="M52.8863 14.8418C52.38 14.9678 51.8737 15.0307 51.3673 15.0307C48.2027 15.0307 45.671 12.5116 45.671 9.36263C45.671 8.8588 45.7343 8.35496 45.8608 7.85113C45.9241 7.6622 45.8608 7.41028 45.671 7.22134C45.4811 7.03241 45.2912 6.96943 45.038 7.03241C42.0633 7.91411 39.9746 10.6852 39.9746 13.7712C39.9746 17.6129 43.076 20.6988 46.9368 20.6988C50.0382 20.6988 52.823 18.6205 53.6459 15.5975C53.7091 15.4086 53.6459 15.1567 53.456 14.9678C53.3294 14.8418 53.0762 14.7788 52.8863 14.8418Z" fill="#808191"/>
<path d="M48.2028 8.10369H48.8357V8.73348C48.8357 9.11135 49.0889 9.36327 49.4686 9.36327C49.8484 9.36327 50.1015 9.11135 50.1015 8.73348V8.10369H50.7345C51.1142 8.10369 51.3674 7.85178 51.3674 7.4739C51.3674 7.09603 51.1142 6.84411 50.7345 6.84411H50.1015V6.21432C50.1015 5.83645 49.8484 5.58453 49.4686 5.58453C49.0889 5.58453 48.8357 5.83645 48.8357 6.21432V6.84411H48.2028C47.823 6.84411 47.5698 7.09603 47.5698 7.4739C47.5698 7.85178 47.823 8.10369 48.2028 8.10369Z" fill="#808191"/>
<path d="M54.5328 10.6222H53.8999V9.9924C53.8999 9.61453 53.6467 9.36261 53.2669 9.36261C52.8872 9.36261 52.634 9.61453 52.634 9.9924V10.6222H52.0011C51.6213 10.6222 51.3682 10.8741 51.3682 11.252C51.3682 11.6299 51.6213 11.8818 52.0011 11.8818H52.634V12.5116C52.634 12.8894 52.8872 13.1413 53.2669 13.1413C53.6467 13.1413 53.8999 12.8894 53.8999 12.5116V11.8818H54.5328C54.9126 11.8818 55.1657 11.6299 55.1657 11.252C55.1657 10.8741 54.9126 10.6222 54.5328 10.6222Z" fill="#808191"/>
<path d="M10.3838 3.11633C4.83425 3.11633 0.340332 7.83381 0.340332 13.6464C0.340332 19.459 4.83425 24.1765 10.3838 24.1765C15.9434 24.1765 20.4473 19.459 20.4473 13.6464C20.4473 7.83381 15.9434 3.11633 10.3838 3.11633ZM17.3509 9.43439H14.3851C14.0634 8.11813 13.6009 6.85452 12.9977 5.68568C14.8475 6.34907 16.3857 7.69692 17.3509 9.43439ZM10.3938 5.26447C11.2283 6.52808 11.8817 7.92858 12.314 9.43439H8.47361C8.90591 7.92858 9.55939 6.52808 10.3938 5.26447ZM2.61242 15.7524C2.45157 15.0785 2.35103 14.373 2.35103 13.6464C2.35103 12.9198 2.45157 12.2143 2.61242 11.5404H6.01051C5.93008 12.2354 5.86976 12.9304 5.86976 13.6464C5.86976 14.3625 5.93008 15.0575 6.01051 15.7524H2.61242ZM3.43681 17.8585H6.40259C6.7243 19.1747 7.18676 20.4383 7.78997 21.6072C5.94013 20.9438 4.40195 19.6065 3.43681 17.8585ZM6.40259 9.43439H3.43681C4.40195 7.68639 5.94013 6.34907 7.78997 5.68568C7.18676 6.85452 6.7243 8.11813 6.40259 9.43439ZM10.3938 22.0284C9.55939 20.7648 8.90591 19.3643 8.47361 17.8585H12.314C11.8817 19.3643 11.2283 20.7648 10.3938 22.0284ZM12.7463 15.7524H8.04131C7.95083 15.0575 7.88046 14.3625 7.88046 13.6464C7.88046 12.9304 7.95083 12.2249 8.04131 11.5404H12.7463C12.8368 12.2249 12.9072 12.9304 12.9072 13.6464C12.9072 14.3625 12.8368 15.0575 12.7463 15.7524ZM12.9977 21.6072C13.6009 20.4383 14.0634 19.1747 14.3851 17.8585H17.3509C16.3857 19.5959 14.8475 20.9438 12.9977 21.6072ZM14.7772 15.7524C14.8576 15.0575 14.9179 14.3625 14.9179 13.6464C14.9179 12.9304 14.8576 12.2354 14.7772 11.5404H18.1752C18.3361 12.2143 18.4366 12.9198 18.4366 13.6464C18.4366 14.373 18.3361 15.0785 18.1752 15.7524H14.7772Z" fill="#808191"/>
<defs>
<filter id="filter0_d_2402_2676" x="60.6247" y="1.36164" width="31.1647" height="31.1647" filterUnits="userSpaceOnUse" color-interpolation-filters="sRGB">
<feFlood flood-opacity="0" result="BackgroundImageFix"/>
<feColorMatrix in="SourceAlpha" type="matrix" values="0 0 0 0 0 0 0 0 0 0 0 0 0 0 0 0 0 0 127 0" result="hardAlpha"/>
<feOffset dy="3.23284"/>
<feGaussianBlur stdDeviation="3.23284"/>
<feColorMatrix type="matrix" values="0 0 0 0 0 0 0 0 0 0 0 0 0 0 0 0 0 0 0.1 0"/>
<feBlend mode="normal" in2="BackgroundImageFix" result="effect1_dropShadow_2402_2676"/>
<feBlend mode="normal" in="SourceGraphic" in2="effect1_dropShadow_2402_2676" result="shape"/>
</filter>
</defs>
</svg>
